# xmcd
#
# Track frame offsets: 
#        225
#        11196
#        21177
#        35465
#        45581
#        55713
#        69611
#        82727
#        91358
#        104699
#        114531
#        125382
#        137238
#        150129
#        161611
#
# Disc length: 2291 seconds
#
# Revision: 0
# Processed by: cddbd v1.5.1PL0 Copyright (c) Steve Scherf et al.
# Submitted via: ExactAudioCopy v0.95a5
#
DISCID=bb08f00f
DTITLE=Barbara Mandrell - The Ten Commandments Of Love
DYEAR=2003
DGENRE=Country
TTITLE0=The Wayward Wind
TTITLE1=Do Right Woman, Do Right Man
TTITLE2=Almost Persuaded
TTITLE3=Kawliga
TTITLE4=Release Me
TTITLE5=Try To Remember
TTITLE6=Don't Touch Me
TTITLE7=I Gave My Love To A Railroad Man
TTITLE8=Lillie Grow High
TTITLE9=In The Name Of Love
TTITLE10=Break My Mind
TTITLE11=Give A Little, Take A Little
TTITLE12=The Ten Commandments Of Love
TTITLE13=We've Got Everything But Love
TTITLE14=This Time I Almost Made It
EXTD=
EXTT0=
EXTT1=
EXTT2=
EXTT3=
EXTT4=
EXTT5=
EXTT6=
EXTT7=
EXTT8=
EXTT9=
EXTT10=
EXTT11=
EXTT12=
EXTT13=
EXTT14=
PLAYORDER=
